<svg width="25" height="25" viewBox="0 0 25 25" fill="none" xmlns="http://www.w3.org/2000/svg">
<path d="M12.5 0C5.59648 0 0 5.59648 0 12.5C0 19.4035 5.59648 25 12.5 25C19.4035 25 25 19.4035 25 12.5C25 5.59648 19.4035 0 12.5 0ZM12.5 22.6562C6.89102 22.6562 2.34375 18.109 2.34375 12.5C2.34375 6.89102 6.89102 2.34375 12.5 2.34375C18.109 2.34375 22.6562 6.89102 22.6562 12.5C22.6562 18.109 18.109 22.6562 12.5 22.6562ZM7.8125 7.8125H10.9375V17.1875H7.8125V7.8125ZM14.0625 7.8125H17.1875V17.1875H14.0625V7.8125Z" fill="white"/>
</svg>
