<svg width="553" height="200" viewBox="0 0 553 200" fill="none" xmlns="http://www.w3.org/2000/svg">
<path fill-rule="evenodd" clip-rule="evenodd" d="M311.7 60.3L285.4 62C286.1 71 289.6 78.4 295.5 84.3C301.4 90.2 311.9 93.1 327.1 93.1C335.7 93.1 342.9 91.8 348.6 89.3C354 87 358.6 83.2 361.9 78.3C365.1 73.6 366.7 68 366.7 62.4C366.8 57.7 365.6 53.1 363.2 49.1C360.9 45.2 357.1 41.9 351.8 39.2C346.5 36.5 337.9 33.9 325.8 31.3C320.9 30.3 317.8 29.2 316.5 28C315.3 27.1 314.5 25.7 314.5 24.2C314.4 22.2 315.4 20.4 316.9 19.2C318.5 17.9 320.9 17.2 324.1 17.2C328 17.2 331 18.1 333.3 20C335.6 21.9 337 24.8 337.7 28.8L363.7 27.3C362.6 18 359 11.2 353 7.00001C347 2.70001 338.3 0.600006 326.9 0.600006C317.6 0.600006 310.2 1.80001 304.9 4.10001C300 6.00001 295.9 9.40001 292.9 13.7C290.3 17.5 288.9 22.1 288.9 26.7C288.7 33.4 291.6 39.7 296.7 44C301.8 48.6 310.5 52.2 322.6 54.9C330 56.5 334.7 58.3 336.7 60.1C338.6 61.6 339.7 63.9 339.7 66.3C339.7 68.8 338.5 71.2 336.5 72.7C334.4 74.6 331.3 75.5 327.4 75.5C322.1 75.5 318.1 73.7 315.2 70.1C313.4 67.8 312.3 64.6 311.7 60.3ZM6.3 2.20001V91.5H34V55.2H36.4C38.8 55.2 41.2 55.9 43.2 57.3C44.7 58.4 46.3 60.7 48.2 64.2L63 91.7H94.4L81 65.8C79.9 63.8 78.6 61.9 77.1 60.2C75.8 58.5 74.4 56.9 72.7 55.5C70.5 54.1 68 52.9 65.5 52.2C68.9 51.6 72.2 50.4 75.2 48.7C82.9 44.3 87.4 35.9 87.1 27.1C87.2 21.9 85.8 16.9 82.9 12.6C80.3 8.70001 76.4 5.80001 72 4.40001C67.5 2.90001 60.9 2.20001 52.4 2.20001H6.3ZM45.7 38.4H34V20.3H46.2C51.2 20.3 54.7 21.1 56.5 22.6C59.8 25.7 60.2 30.8 57.5 34.4C56.4 35.9 54.8 36.9 53 37.2C50.6 37.8 48.2 38.2 45.7 38.4ZM26.3 166.5L0 168.2C0.8 177.2 4.1 184.6 10 190.6C15.9 196.5 26.4 199.4 41.6 199.4C50.2 199.4 57.4 198.1 63.1 195.6C68.5 193.3 73.1 189.5 76.4 184.6C76.983 183.716 77.5165 182.804 77.9985 181.868C82.2561 188.088 87.1974 192.525 92.9 195.1C99 197.9 107 199.3 116.7 199.3C124.7 199.3 131.3 198.1 136.5 195.8C141.6 193.5 146.1 190 149.5 185.5C153.2 180.4 155.9 174.6 157.2 168.5L133 161.2C131.8 166.8 129.8 171.1 127.1 174.2C124.4 177.1 120.4 178.6 115.1 178.6C109.6 178.6 105.4 176.8 102.4 173.1C99.4 169.4 97.9 162.6 97.9 152.7C97.9 144.7 99.2 138.8 101.7 135.1C105 130 109.8 127.5 116.1 127.5C118.7 127.5 121.3 128 123.6 129.2C125.9 130.4 127.8 132 129.3 134.1C130.5 135.9 131.4 138 132 140.1L156.4 134.7C153.2 125.3 148.4 118.3 142 113.7C135.5 109.2 126.7 106.9 115.4 106.9C101 106.9 89.9 110.9 82 118.8C79.8662 120.934 78.0242 123.323 76.4721 125.966C74.6892 120.516 71.71 116.317 67.5 113.3C61.5 109 52.8 106.9 41.4 106.9C32.1 106.9 24.7 108.1 19.4 110.4C14.5 112.3 10.4 115.7 7.4 120C4.8 123.8 3.4 128.4 3.4 133C3.2 139.7 6.1 146 11.2 150.3C16.3 154.9 25 158.5 37.1 161.2C44.6 162.8 49.3 164.6 51.3 166.4C53.2 167.9 54.3 170.2 54.3 172.6C54.3 175.1 53.1 177.4 51.1 179C49 180.9 45.9 181.8 42 181.8C36.7 181.8 32.6 179.9 29.8 176.3C28 174 26.9 170.8 26.3 166.5ZM72.9233 133.899L52.1 135.1C51.4 131.1 50 128.2 47.7 126.3C45.5 124.4 42.4 123.5 38.5 123.6C35.3 123.6 32.9 124.3 31.3 125.7C29.7 126.9 28.8 128.7 28.9 130.7C28.9 132.2 29.7 133.6 30.9 134.5C32.2 135.7 35.3 136.8 40.2 137.8C52.3 140.4 60.9 143 66.2 145.7C67.7009 146.465 69.0815 147.277 70.3418 148.138C70.661 142.919 71.5198 138.171 72.9233 133.899ZM217.1 108.4H189.5V197.8H217.1V161.6H247.3V197.8H275.1V174.467C275.804 176.16 276.604 177.771 277.5 179.3C281.2 185.8 286.8 191.1 293.6 194.5C300.2 197.7 308.5 199.3 318.6 199.3C328.5 199.3 336.8 197.4 343.5 193.7C350 190.1 355.3 184.7 358.7 178.1C362.2 171.4 364 162.9 364 152.4C364 138 360 126.8 351.9 118.8C343.8 110.8 332.4 106.8 317.5 106.8C303 106.8 291.6 110.9 283.5 119C279.912 122.588 277.11 126.823 275.1 131.696V108.4H247.3V139.7H217.1V108.4ZM298.9 153.2C298.9 162.2 300.6 168.7 303.9 172.7C307.2 176.6 311.8 178.6 317.6 178.6C323.5 178.6 328.1 176.7 331.4 172.8C334.7 168.9 336.3 162 336.3 152C336.3 143.6 334.6 137.4 331.2 133.6C327.8 129.7 323.2 127.8 317.4 127.8C312.3 127.6 307.4 129.8 304 133.7C300.6 137.6 298.9 144.1 298.9 153.2ZM392.3 153.1C392.3 138.5 396.4 127.1 404.5 119C412.6 110.9 424 106.8 438.5 106.8C453.4 106.8 464.9 110.8 472.9 118.8C476.933 122.833 479.975 127.679 482 133.339V108.4H482.1H509.7V175.8H552.8V197.8H482V172.748C481.34 174.646 480.573 176.429 479.7 178.1C476.3 184.7 471 190.1 464.5 193.7C457.8 197.4 449.5 199.3 439.6 199.3C429.5 199.3 421.2 197.7 414.6 194.5C407.8 191.1 402.2 185.8 398.5 179.3C394.4 172.3 392.3 163.6 392.3 153.1ZM419.9 153.2C419.9 162.2 421.6 168.7 424.9 172.7C428.2 176.6 432.8 178.6 438.6 178.6C444.5 178.6 449.1 176.7 452.4 172.8C455.7 168.9 457.3 162 457.3 152C457.3 143.6 455.6 137.4 452.2 133.6C448.8 129.7 444.2 127.8 438.4 127.8C433.3 127.6 428.3 129.8 425 133.7C421.6 137.6 419.9 144.1 419.9 153.2Z" fill="#FDFDFD"/>
</svg>
